HIERARCHY
ROOT Pelvis
{
	OFFSET 0.000000 0.000000 0.000000
	CHANNELS 6 Xposition Yposition Zposition Xrotation Yrotation Zrotation
	JOINT LeftUpLeg_virtual
	{
		OFFSET 0.000000 0.000000 0.000000
		CHANNELS 3 Xrotation Yrotation Zrotation
		JOINT LeftUpLeg
		{
			OFFSET 8.479700 -4.795502 -0.379100
			CHANNELS 3 Xrotation Yrotation Zrotation
			JOINT LeftLeg
			{
				OFFSET 0.024144 -32.555107 0.112900
				CHANNELS 3 Xrotation Yrotation Zrotation
				JOINT LeftFoot
				{
					OFFSET -0.024144 -32.638630 -3.012600
					CHANNELS 3 Xrotation Yrotation Zrotation
					JOINT LeftToeBase
					{
						OFFSET 0.970200 -13.225400 11.864200
						CHANNELS 3 Xrotation Yrotation Zrotation
						End Site
						{
							OFFSET 0 0 0
						}
					}
				}
			}
		}
	}
	JOINT RightUpLeg_virtual
	{
		OFFSET 0.000000 0.000000 0.000000
		CHANNELS 3 Xrotation Yrotation Zrotation
		JOINT RightUpLeg
		{
			OFFSET -8.479700 -4.795502 -0.379100
			CHANNELS 3 Xrotation Yrotation Zrotation
			JOINT RightLeg
			{
				OFFSET -0.023144 -32.555092 0.112900
				CHANNELS 3 Xrotation Yrotation Zrotation
				JOINT RightFoot
				{
					OFFSET 0.023144 -32.638641 -3.012700
					CHANNELS 3 Xrotation Yrotation Zrotation
					JOINT RightToeBase
					{
						OFFSET -0.970200 -13.225400 11.864200
						CHANNELS 3 Xrotation Yrotation Zrotation
						End Site
						{
							OFFSET 0 0 0
						}
					}
				}
			}
		}
	}
	JOINT Hips_virtual
	{
		OFFSET 0.000000 0.000000 0.000000
		CHANNELS 3 Xrotation Yrotation Zrotation
		JOINT Hips
		{
			OFFSET -0.000000 -0.000000 -0.000000
			CHANNELS 3 Xrotation Yrotation Zrotation
			JOINT Spine
			{
				OFFSET 0.000000 7.722000 1.166200
				CHANNELS 3 Xrotation Yrotation Zrotation
				JOINT Spine1
				{
					OFFSET 0.000000 12.024101 0.248800
					CHANNELS 3 Xrotation Yrotation Zrotation
					JOINT Spine2
					{
						OFFSET 0.000000 11.502998 -0.491200
						CHANNELS 3 Xrotation Yrotation Zrotation
						JOINT Neck_virtual
						{
							OFFSET 0.000000 0.000000 0.000000
							CHANNELS 3 Xrotation Yrotation Zrotation
							JOINT Neck
							{
								OFFSET 0.000000 18.430702 -3.123100
								CHANNELS 3 Xrotation Yrotation Zrotation
								JOINT Head
								{
									OFFSET 0.000000 9.051102 1.034000
									CHANNELS 3 Xrotation Yrotation Zrotation
									End Site
									{
										OFFSET 0 0 0
									}
								}
							}
						}
						JOINT LeftShoulder_virtual
						{
							OFFSET 0.000000 0.000000 0.000000
							CHANNELS 3 Xrotation Yrotation Zrotation
							JOINT LeftShoulder
							{
								OFFSET 6.197800 13.665199 -4.064700
								CHANNELS 3 Xrotation Yrotation Zrotation
								JOINT LeftArm
								{
									OFFSET 7.778100 -0.187103 -1.709300
									CHANNELS 3 Xrotation Yrotation Zrotation
									JOINT LeftForeArm
									{
										OFFSET 22.049376 0.000000 0.000000
										CHANNELS 3 Xrotation Yrotation Zrotation
										JOINT LeftHand
										{
											OFFSET 23.009392 0.000000 0.000000
											CHANNELS 3 Xrotation Yrotation Zrotation
											End Site
											{
												OFFSET 0 0 0
											}
										}
									}
								}
							}
						}
						JOINT RightShoulder_virtual
						{
							OFFSET 0.000000 0.000000 0.000000
							CHANNELS 3 Xrotation Yrotation Zrotation
							JOINT RightShoulder
							{
								OFFSET -6.197800 13.665199 -4.064700
								CHANNELS 3 Xrotation Yrotation Zrotation
								JOINT RightArm
								{
									OFFSET -7.778100 -0.187103 -1.709300
									CHANNELS 3 Xrotation Yrotation Zrotation
									JOINT RightForeArm
									{
										OFFSET -22.049376 0.000000 0.000000
										CHANNELS 3 Xrotation Yrotation Zrotation
										JOINT RightHand
										{
											OFFSET -23.009392 0.000000 0.000000
											CHANNELS 3 Xrotation Yrotation Zrotation
											End Site
											{
												OFFSET 0 0 0
											}
										}
									}
								}
							}
						}
					}
				}
			}
		}
	}
}
MOTION
Frames: 13
Frame Time: 0.03333333
5.677405 77.770576 -9.483465 0.000000 0.000000 0.000000 11.323707 8.688214 -0.355972 -8.162126 14.930631 8.476739 35.145138 1.678211 3.662405 2.068480 -1.945216 -9.509621 0.000000 0.000000 0.000000 11.323707 8.688214 -0.355972 -42.867500 -6.138247 -7.476614 43.729989 -1.858527 3.333210 -8.776333 2.164252 -1.518077 0.000000 0.000000 0.000000 11.323707 8.688214 -0.355972 0.000000 0.000000 0.000000 4.646044 -1.607244 -0.295703 0.605670 -2.990263 3.348216 0.000000 0.000000 0.000000 0.632969 -3.010484 3.359030 -3.128720 0.442728 3.393671 0.000000 0.000000 0.000000 0.632969 -3.010484 3.359030 0.028837 0.485800 0.321203 -37.094645 -12.101455 -49.437179 -179.999896 -66.162615 -179.999882 0.000000 0.000000 0.000000 0.632969 -3.010484 3.359030 -0.713610 -10.227974 7.452259 -37.185292 7.525134 49.482279 179.999978 57.602674 -179.999978 0.000000 0.000000 0.000000 
5.544894 78.663651 -11.306383 0.000000 0.000000 0.000000 14.008951 9.317740 -1.499299 -21.225771 13.634354 11.475052 46.391007 -3.561684 0.203389 16.175802 -2.729162 -0.702719 0.000000 0.000000 0.000000 14.008951 9.317740 -1.499299 -44.012274 -5.946723 -5.730855 45.940201 -2.745396 2.917327 -5.024556 2.191753 -1.784122 0.000000 0.000000 0.000000 14.008951 9.317740 -1.499299 0.000000 0.000000 0.000000 3.834738 -0.953007 1.009714 3.030177 -2.333152 2.316411 0.000000 0.000000 0.000000 3.025691 -2.337049 2.305679 -3.373859 0.744376 1.970036 0.000000 0.000000 0.000000 3.025691 -2.337049 2.305679 0.226642 -3.126610 5.972564 -55.645524 -11.976971 -43.754506 -179.999868 -69.485242 -179.999868 0.000000 0.000000 0.000000 3.025691 -2.337049 2.305679 -1.787729 -12.486580 1.915336 -57.494128 10.708991 49.479922 179.999964 64.133523 -179.999964 0.000000 0.000000 0.000000 
5.321502 78.281677 -12.744965 0.000000 0.000000 0.000000 15.063887 8.754493 -1.940038 -35.853558 10.332481 15.096649 70.479247 -3.270752 -0.543602 12.852143 -2.222916 4.860443 0.000000 0.000000 0.000000 15.063887 8.754493 -1.940038 -42.848458 -5.397798 -3.801472 51.848704 -5.009018 2.384195 -6.954993 2.427490 -2.688850 0.000000 0.000000 0.000000 15.063887 8.754493 -1.940038 0.000002 0.000000 0.000000 4.253699 -0.613872 1.701308 5.525779 -2.007906 1.460071 0.000000 0.000000 0.000000 5.509995 -2.001091 1.443115 -3.821969 1.179407 0.529720 0.000000 0.000000 0.000000 5.509995 -2.001091 1.443115 0.256384 -4.260463 17.532845 -70.525064 -4.093755 -37.545099 -179.999950 -75.168643 -179.999937 0.000000 0.000000 0.000000 5.509995 -2.001091 1.443115 -4.311110 -16.380942 -8.167938 -75.846655 5.206719 53.753503 -179.999745 75.375618 179.999745 0.000000 0.000000 0.000000 
4.918562 78.172623 -14.057644 0.000000 0.000000 0.000000 12.529451 8.720097 -0.532523 -43.355510 8.317498 15.989920 87.554433 1.731801 0.829157 9.650757 -0.674022 9.718185 0.000000 0.000000 0.000000 12.529451 8.720097 -0.532523 -37.042903 -5.556612 -3.696210 51.066896 -6.001106 1.613514 -13.564120 2.804519 -3.577258 0.000000 0.000000 0.000000 12.529451 8.720097 -0.532523 0.000001 0.000000 0.000000 11.205082 -1.023498 0.377271 4.641891 -2.434681 1.215398 0.000000 0.000000 0.000000 4.643789 -2.376273 1.240036 -4.441268 1.638403 -0.538824 0.000000 0.000000 0.000000 4.643789 -2.376273 1.240036 -0.549379 -2.146077 27.836933 -72.667134 1.178763 -29.946684 -179.999650 -82.576085 -179.999650 0.000000 0.000000 0.000000 4.643789 -2.376273 1.240036 -8.667457 -18.781804 -25.118371 -79.985784 -4.358371 54.700506 -179.996235 84.691825 179.996221 0.000000 0.000000 0.000000 
4.428751 78.213013 -14.742283 0.000000 0.000000 0.000000 10.818132 9.197860 2.002467 -47.720927 8.576461 15.412803 93.914521 5.861372 1.676500 8.476385 -0.832831 12.933631 0.000000 0.000000 0.000000 10.818132 9.197860 2.002467 -33.839742 -6.489895 -5.130427 48.312752 -5.910127 0.845145 -19.821011 3.701883 -6.093013 0.000000 0.000000 0.000000 10.818132 9.197860 2.002467 0.000000 0.000000 0.000000 16.303103 -1.953344 -3.720852 2.584045 -2.735305 1.265199 0.000000 0.000000 0.000000 2.641300 -2.664698 1.362576 -5.197549 1.888820 -0.140764 0.000000 0.000000 0.000000 2.641300 -2.664698 1.362576 -0.696165 -2.093739 30.730520 -66.963284 1.059143 -26.541967 -179.999554 -85.929893 -179.999582 0.000000 0.000000 0.000000 2.641300 -2.664698 1.362576 -9.480931 -17.572716 -29.617848 -74.873244 -4.107919 50.276179 179.973504 89.507027 -179.973121 0.000000 0.000000 0.000000 
4.054980 78.968117 -14.584642 0.000000 0.000000 0.000000 13.645294 7.164720 2.924265 -52.820380 10.648970 16.255768 89.031208 4.023390 0.548756 6.971937 -0.964627 13.301720 0.000000 0.000000 0.000000 13.645294 7.164720 2.924265 -36.020451 -6.279115 -5.613607 45.325098 -6.636112 1.060095 -17.924179 3.634273 -6.011441 0.000000 0.000000 0.000000 13.645294 7.164720 2.924265 0.000000 0.000000 0.000000 14.013637 -1.597912 -7.126899 1.769764 -2.049463 0.919862 0.000000 0.000000 0.000000 1.808710 -2.056910 0.974190 -5.247909 1.570778 1.033121 0.000000 0.000000 0.000000 1.808710 -2.056910 0.974190 0.436181 -5.182429 24.206812 -59.301239 -0.248134 -25.445836 -179.999786 -81.803386 -179.999786 0.000000 0.000000 0.000000 1.808710 -2.056910 0.974190 -6.512464 -13.611458 -20.925598 -64.068848 0.388899 44.479479 179.999991 84.679729 -179.999978 0.000000 0.000000 0.000000 
3.864395 80.533493 -14.082975 0.000000 0.000000 0.000000 17.039379 2.050252 1.867289 -55.314338 12.709599 18.584695 75.219248 -0.790225 -1.951557 4.399966 -3.012305 11.128887 0.000000 0.000000 0.000000 17.039379 2.050252 1.867289 -36.515605 -7.811692 -5.214808 38.788777 -4.997043 3.886165 -9.095921 2.787776 -3.572820 0.000000 0.000000 0.000000 17.039379 2.050252 1.867289 0.000000 0.000000 0.000000 10.598972 -0.033414 -9.218249 2.082280 -0.951034 1.865385 0.000000 0.000000 0.000000 2.049105 -0.920625 1.869607 -6.893900 1.854048 1.035714 0.000000 0.000000 0.000000 2.049105 -0.920625 1.869607 0.229144 -3.347759 10.040519 -48.911610 -2.302251 -28.635993 -179.999937 -74.658325 -179.999950 0.000000 0.000000 0.000000 2.049105 -0.920625 1.869607 -3.572932 -8.597346 -12.730118 -50.834970 -1.445652 43.140947 -179.999991 75.849893 179.999991 0.000000 0.000000 0.000000 
3.874100 81.201225 -13.287209 0.000000 0.000000 0.000000 18.409380 -2.123708 -1.194795 -55.343455 12.629817 20.327391 59.205651 -9.785684 -4.176213 4.042933 -5.044983 8.797962 0.000000 0.000000 0.000000 18.409380 -2.123708 -1.194795 -31.723780 -9.040852 -0.817907 34.336454 -2.316118 5.608870 -5.343290 2.950405 -5.847853 0.000000 0.000000 0.000000 18.409380 -2.123708 -1.194795 0.000002 0.000000 0.000000 7.997487 1.267759 -8.441392 3.054356 -0.292416 3.242828 0.000000 0.000000 0.000000 2.968209 -0.193059 3.250012 -9.671879 2.412707 0.842909 0.000000 0.000000 0.000000 2.968209 -0.193059 3.250012 0.172018 2.174562 -0.735964 -34.652152 -1.097483 -37.897810 -179.999950 -70.575819 -179.999950 0.000000 0.000000 0.000000 2.968209 -0.193059 3.250012 -1.171143 -4.644302 -2.396868 -38.878168 -4.234488 43.396317 179.999991 72.502950 179.999978 0.000000 0.000000 0.000000 
4.015665 79.793495 -11.953941 0.000000 0.000000 0.000000 19.383013 -2.475731 -4.451276 -55.481972 10.736969 19.017673 49.162141 -9.790733 -3.487838 6.273624 -12.786941 6.202462 0.000000 0.000000 0.000000 19.383013 -2.475731 -4.451276 -23.740745 -6.808277 5.106589 33.961633 -6.451666 4.241562 -12.533791 4.273532 -9.808883 0.000000 0.000000 0.000000 19.383013 -2.475731 -4.451276 -0.000001 0.000000 0.000000 3.327625 1.439581 -5.033948 4.145134 -0.479512 3.019601 0.000000 0.000000 0.000000 4.090379 -0.421677 3.056988 -10.674307 2.075771 1.810187 0.000000 0.000000 0.000000 4.090379 -0.421677 3.056988 1.299664 8.313726 -18.538226 -23.414927 -4.076953 -36.861882 -179.999937 -71.409860 -179.999950 0.000000 0.000000 0.000000 4.090379 -0.421677 3.056988 0.800828 -5.189613 15.888308 -28.930755 -3.466004 38.330001 180.000005 73.383443 -180.000005 0.000000 0.000000 0.000000 
4.224628 76.942238 -10.236748 0.000000 0.000000 0.000000 19.366769 0.078247 -5.591422 -53.920570 9.562344 13.160087 53.151484 -9.848649 1.675503 -13.087471 -10.110545 6.352331 0.000000 0.000000 0.000000 19.366769 0.078247 -5.591422 -14.498606 -5.572130 5.727670 32.896298 -10.362728 4.205494 -22.477565 2.424502 -7.118245 0.000000 0.000000 0.000000 19.366769 0.078247 -5.591422 0.000000 0.000000 0.000000 -1.632820 0.875241 -2.975178 4.595003 -0.930339 1.691648 0.000000 0.000000 0.000000 4.571623 -0.884402 1.723337 -9.204892 0.930521 3.251489 0.000000 0.000000 0.000000 4.571623 -0.884402 1.723337 2.250732 14.730206 -25.211405 -12.683114 -3.096782 -42.117323 -179.999909 -72.495116 -179.999909 0.000000 0.000000 0.000000 4.571623 -0.884402 1.723337 1.689549 -11.673694 23.414729 -15.200195 -7.772732 45.249703 179.999937 73.441151 -179.999950 0.000000 0.000000 0.000000 
4.558743 73.302956 -9.026592 0.000000 0.000000 0.000000 18.237744 1.453055 -5.044194 -52.553852 8.507871 9.590182 60.787837 -9.978027 6.009318 -27.390920 -3.096930 0.930816 0.000000 0.000000 0.000000 18.237744 1.453055 -5.044194 -8.614282 -7.767279 2.446402 34.355571 -9.383817 5.410543 -34.276546 3.702502 -0.698599 0.000000 0.000000 0.000000 18.237744 1.453055 -5.044194 0.000001 0.000000 0.000000 -4.870069 0.880874 -2.140485 4.559463 -0.775599 0.145617 0.000000 0.000000 0.000000 4.536194 -0.601874 0.200891 -7.204326 0.105591 3.829068 0.000000 0.000000 0.000000 4.536194 -0.601874 0.200891 0.765914 16.558233 -16.123809 -3.982605 0.712763 -56.858675 -179.999868 -70.419332 -179.999868 0.000000 0.000000 0.000000 4.536194 -0.601874 0.200891 0.216217 -18.442815 15.443548 -0.042289 -9.626149 62.429152 -179.999950 71.679980 179.999950 0.000000 0.000000 0.000000 
4.779992 71.746284 -9.549585 0.000000 0.000000 0.000000 17.759144 -1.796265 -3.618819 -54.139501 8.981181 10.610397 65.131618 -8.924600 5.182471 -29.705200 -1.923292 0.556971 0.000000 0.000000 0.000000 17.759144 -1.796265 -3.618819 -11.933295 -8.810169 0.291630 40.831998 -3.795651 3.893866 -39.874552 3.751487 -1.461689 0.000000 0.000000 0.000000 17.759144 -1.796265 -3.618819 0.000000 0.000000 0.000000 -3.445017 1.644712 -2.751680 2.896687 -0.006679 -0.105206 0.000000 0.000000 0.000000 2.863299 0.135301 -0.002498 -6.099642 0.140205 3.821345 0.000000 0.000000 0.000000 2.863299 0.135301 -0.002498 -0.149009 15.183709 -10.311596 -4.868202 2.632973 -59.965058 180.000005 -67.529930 -179.999991 0.000000 0.000000 0.000000 2.863299 0.135301 -0.002498 -1.014299 -17.669689 9.235959 1.389521 -8.826295 65.503754 -179.999991 68.285513 179.999991 0.000000 0.000000 0.000000 
4.758471 74.477386 -10.663698 0.000000 0.000000 0.000000 16.023684 -7.037256 -2.600218 -49.077054 11.508011 13.016151 56.445223 -6.907946 3.449406 -25.324212 -2.695276 -0.465640 0.000000 0.000000 0.000000 16.023684 -7.037256 -2.600218 -14.661868 -7.222058 0.787017 41.807356 -4.311601 1.829175 -30.916131 3.565206 -4.103328 0.000000 0.000000 0.000000 16.023684 -7.037256 -2.600218 0.000002 0.000000 0.000000 2.367530 2.408569 -4.524716 0.803067 0.794439 0.712846 0.000000 0.000000 0.000000 0.733876 0.754169 0.751302 -4.842695 0.554832 4.072931 0.000000 0.000000 0.000000 0.733876 0.754169 0.751302 -0.169832 14.242652 -9.801339 -14.274084 1.311496 -53.112265 -179.999896 -67.624672 -179.999882 0.000000 0.000000 0.000000 0.733876 0.754169 0.751302 -0.619602 -12.194033 9.233868 -9.004593 -11.108475 57.693577 -179.999964 66.104367 179.999964 0.000000 0.000000 0.000000 
